<?xml version="1.0" standalone="no"?>
<!DOCTYPE svg PUBLIC "-//W3C//DTD SVG 20010904//EN"
 "http://www.w3.org/TR/2001/REC-SVG-20010904/DTD/svg10.dtd">
<svg version="1.0" xmlns="http://www.w3.org/2000/svg"
 width="40.000000pt" height="108.000000pt" viewBox="0 0 40.000000 108.000000"
 preserveAspectRatio="xMidYMid meet">
<metadata>
Created by potrace 1.13, written by Peter Selinger 2001-2015
</metadata>
<g transform="translate(0.000000,108.000000) scale(0.100000,-0.100000)"
fill="#000000" stroke="none">
<path d="M117 1003 c-8 -13 11 -176 25 -219 23 -69 72 -52 113 40 l22 50 7
-369 c4 -206 11 -377 17 -387 20 -36 32 -20 26 35 -4 28 -9 198 -12 377 -7
366 -11 430 -29 430 -7 0 -20 -26 -29 -57 -20 -65 -56 -135 -73 -140 -18 -6
-35 54 -41 150 -6 80 -14 110 -26 90z"/>
</g>
</svg>
