<?xml version="1.0" encoding="UTF-8" ?>
<!DOCTYPE svg PUBLIC "-//W3C//DTD SVG 1.1//EN" "http://www.w3.org/Graphics/SVG/1.1/DTD/svg11.dtd">
<svg width="352pt" height="366pt" viewBox="0 0 352 366" version="1.1" xmlns="http://www.w3.org/2000/svg">
<path fill="#fffffe" d=" M 0.00 0.00 L 352.00 0.00 L 352.00 366.00 L 0.00 366.00 L 0.00 0.00 Z" />
<path fill="#fbdfbb" d=" M 253.97 18.39 C 256.60 17.16 259.20 15.87 261.77 14.53 C 264.07 15.58 266.16 18.53 268.93 17.31 C 271.05 16.54 272.99 15.38 274.99 14.35 C 276.38 15.15 277.75 16.01 279.20 16.71 C 283.24 18.59 288.11 17.69 291.90 20.23 C 294.94 21.79 296.51 24.92 298.04 27.81 C 302.29 31.08 307.25 35.48 306.56 41.42 C 298.62 27.52 282.24 21.24 267.01 19.91 C 252.58 19.39 238.32 23.32 225.29 29.31 C 225.37 27.38 227.17 26.53 228.38 25.35 C 229.90 23.90 231.13 22.18 232.52 20.60 C 234.73 20.45 236.87 21.08 238.96 21.75 C 241.76 19.99 244.44 17.98 247.50 16.70 C 249.83 15.78 251.93 17.52 253.97 18.39 Z" />
<path fill="#000000" d=" M 225.29 29.31 C 238.32 23.32 252.58 19.39 267.01 19.91 C 282.24 21.24 298.62 27.52 306.56 41.42 C 314.88 56.18 317.94 74.85 311.17 90.81 C 304.45 105.11 294.43 118.03 281.98 127.81 C 266.82 139.80 247.07 144.52 228.05 144.76 C 219.18 145.21 210.64 142.45 202.26 139.94 C 200.01 139.16 199.56 135.78 201.24 134.28 C 202.35 132.90 204.33 133.53 205.80 133.80 C 209.85 135.02 213.92 136.17 218.06 137.05 C 223.61 138.02 229.30 138.52 234.93 137.93 C 246.96 136.89 259.21 134.60 269.87 128.65 C 280.68 122.73 289.84 114.09 297.18 104.25 C 303.59 96.04 308.82 86.47 310.07 75.99 C 310.76 70.68 309.77 65.39 309.11 60.14 C 307.85 63.49 305.51 66.69 301.88 67.63 C 296.81 68.63 291.29 66.78 287.80 62.96 C 285.09 59.29 283.84 54.58 284.67 50.07 C 285.55 44.08 286.69 37.15 291.83 33.27 L 294.09 33.42 C 287.96 29.43 281.22 26.34 274.05 24.79 C 265.58 22.51 256.70 23.53 248.16 24.82 C 233.56 27.30 219.74 33.68 207.88 42.46 C 206.51 43.77 205.77 45.52 204.96 47.18 C 205.14 45.93 205.31 44.69 205.48 43.44 C 208.11 40.69 210.88 38.07 214.03 35.92 C 214.93 35.22 216.20 34.86 216.66 33.70 C 219.77 32.82 222.27 30.48 225.29 29.31 Z" />
<path fill="#fbdfbb" d=" M 207.88 42.46 C 219.74 33.68 233.56 27.30 248.16 24.82 C 256.70 23.53 265.58 22.51 274.05 24.79 C 281.22 26.34 287.96 29.43 294.09 33.42 L 291.83 33.27 C 286.69 37.15 285.55 44.08 284.67 50.07 C 283.84 54.58 285.09 59.29 287.80 62.96 C 284.07 62.78 283.08 58.65 280.61 56.57 C 277.40 53.76 274.64 50.50 271.56 47.56 C 269.80 47.69 268.03 47.89 266.27 47.77 C 263.16 46.85 260.48 44.50 257.08 44.73 C 250.71 43.82 244.31 43.25 237.94 42.41 C 233.87 43.09 229.11 43.88 226.84 47.78 C 220.86 44.87 213.38 46.49 207.88 42.46 Z" />
<path fill="#000000" d=" M 195.12 34.64 C 202.02 34.02 208.99 34.50 215.91 34.31 L 214.72 34.63 C 213.63 34.89 212.54 35.13 211.44 35.35 C 205.02 36.09 198.52 35.92 192.13 37.00 C 181.98 38.90 173.31 45.08 165.46 51.46 C 150.32 62.47 138.05 77.19 129.19 93.62 C 123.13 105.19 117.41 117.08 114.27 129.81 C 114.25 129.88 114.22 130.03 114.20 130.10 C 112.89 135.22 112.14 140.45 111.57 145.70 C 110.33 156.18 109.66 167.44 114.94 177.01 C 118.46 184.99 127.94 190.35 136.50 187.60 C 142.04 185.22 146.59 180.98 150.74 176.70 C 158.65 166.81 164.65 155.29 167.72 142.97 C 168.45 139.93 168.99 136.85 169.81 133.82 C 170.57 133.57 171.34 133.31 172.10 133.04 C 173.28 134.10 173.67 135.38 173.28 136.89 C 170.45 151.97 163.74 166.33 153.93 178.13 C 152.77 179.39 151.56 180.60 150.34 181.80 C 144.57 187.10 137.38 192.83 128.97 191.07 C 120.28 190.27 113.67 183.30 110.38 175.65 C 110.26 175.17 110.01 174.21 109.89 173.73 C 109.56 174.07 108.91 174.74 108.58 175.08 C 108.38 174.70 107.98 173.96 107.78 173.58 C 99.59 177.96 94.96 186.37 89.37 193.41 C 82.93 203.85 77.73 215.07 73.40 226.54 C 68.23 238.86 65.89 252.10 63.12 265.11 C 61.07 273.20 60.09 281.53 58.13 289.65 C 56.39 289.79 54.65 290.00 52.90 289.94 C 50.22 288.76 47.85 286.97 45.16 285.78 C 39.72 284.19 33.62 281.42 28.04 283.93 C 23.14 285.89 21.40 293.18 25.10 297.02 C 26.96 299.16 29.94 299.59 32.38 300.77 C 35.96 302.51 40.00 302.62 43.90 302.51 C 48.47 302.25 53.05 302.10 57.61 302.74 C 57.66 303.10 57.76 303.83 57.81 304.19 C 57.26 304.42 56.15 304.89 55.59 305.12 C 54.99 308.41 54.46 311.72 53.77 314.99 L 53.63 315.62 C 51.71 316.33 49.96 317.38 48.22 318.45 C 48.64 314.13 49.56 309.87 49.99 305.54 C 42.50 305.75 34.86 304.88 27.82 302.23 C 24.65 301.09 21.96 298.63 20.75 295.47 C 18.96 290.33 21.32 283.87 26.35 281.54 C 29.07 280.00 32.34 280.06 35.35 280.36 C 41.75 281.74 48.29 283.71 53.52 287.80 C 54.32 284.07 55.04 280.33 55.83 276.60 C 58.99 262.34 61.94 247.99 66.39 234.06 C 72.73 217.27 80.46 200.80 91.40 186.49 C 96.43 181.01 101.07 173.69 109.06 172.57 C 107.06 166.95 106.75 160.92 106.74 155.02 C 107.13 146.98 107.73 138.90 109.65 131.06 C 113.10 116.49 119.66 102.88 127.03 89.92 C 131.35 82.79 135.92 75.74 141.49 69.51 C 147.16 63.83 152.41 57.65 158.99 52.98 C 162.71 50.34 166.30 47.52 170.01 44.87 C 177.14 39.16 185.92 35.15 195.12 34.64 Z" />
<path fill="#fbdfbb" d=" M 290.48 36.41 C 290.65 34.96 291.46 34.17 292.91 34.04 C 292.68 35.45 291.88 36.24 290.48 36.41 Z" />
<path fill="#fbdfbb" d=" M 211.44 35.35 C 212.54 35.13 213.63 34.89 214.72 34.63 L 214.03 35.92 C 210.88 38.07 208.11 40.69 205.48 43.44 C 201.37 46.11 196.34 45.47 191.91 47.19 C 189.54 48.37 187.06 46.97 184.62 47.07 C 180.59 48.64 176.98 51.61 175.92 55.96 C 173.17 57.88 169.25 57.29 166.61 59.51 C 163.17 62.43 161.62 66.78 159.83 70.77 C 158.50 72.51 156.24 73.21 154.61 74.63 C 151.29 77.66 150.32 82.28 147.91 85.92 C 142.22 91.90 137.95 99.17 135.42 107.04 C 136.47 108.20 137.51 109.36 138.57 110.53 C 135.37 115.77 131.75 120.86 129.64 126.66 C 129.47 131.12 128.81 135.91 130.92 140.04 C 131.62 141.27 130.85 142.62 130.65 143.88 C 131.67 145.65 132.74 147.39 133.86 149.11 C 136.98 149.32 139.99 150.19 142.78 151.58 C 145.40 149.12 149.17 148.95 152.17 147.18 C 155.68 145.56 158.35 142.62 161.89 141.06 C 161.04 142.91 159.70 144.70 159.93 146.85 C 163.01 146.75 165.41 144.79 167.72 142.97 C 164.65 155.29 158.65 166.81 150.74 176.70 C 146.59 180.98 142.04 185.22 136.50 187.60 C 127.94 190.35 118.46 184.99 114.94 177.01 C 109.66 167.44 110.33 156.18 111.57 145.70 C 112.93 143.73 114.53 141.88 115.51 139.68 C 115.95 136.43 115.25 133.16 114.20 130.10 C 114.22 130.03 114.25 129.88 114.27 129.81 C 116.40 128.34 118.82 127.39 120.97 125.98 C 122.18 123.00 123.10 119.84 125.24 117.35 C 127.46 114.83 126.93 111.21 128.28 108.29 C 129.15 105.87 131.08 103.64 130.62 100.93 C 130.40 98.45 129.73 96.04 129.19 93.62 C 138.05 77.19 150.32 62.47 165.46 51.46 C 173.31 45.08 181.98 38.90 192.13 37.00 C 192.62 37.58 193.60 38.74 194.09 39.32 C 195.74 39.37 197.39 39.38 199.03 39.58 C 200.82 39.73 202.11 41.53 203.93 41.40 C 206.78 39.87 209.17 37.63 211.44 35.35 Z" />
<path fill="#fffffe" d=" M 192.13 37.00 C 198.52 35.92 205.02 36.09 211.44 35.35 C 209.17 37.63 206.78 39.87 203.93 41.40 C 202.11 41.53 200.82 39.73 199.03 39.58 C 197.39 39.38 195.74 39.37 194.09 39.32 C 193.60 38.74 192.62 37.58 192.13 37.00 Z" />
<path fill="#f7c380" d=" M 204.96 47.18 C 205.77 45.52 206.51 43.77 207.88 42.46 C 213.38 46.49 220.86 44.87 226.84 47.78 C 229.11 43.88 233.87 43.09 237.94 42.41 C 244.31 43.25 250.71 43.82 257.08 44.73 C 260.48 44.50 263.16 46.85 266.27 47.77 C 268.03 47.89 269.80 47.69 271.56 47.56 C 274.64 50.50 277.40 53.76 280.61 56.57 C 283.08 58.65 284.07 62.78 287.80 62.96 C 287.30 65.58 286.51 68.14 286.20 70.79 C 286.80 72.62 287.90 74.24 288.51 76.07 C 288.75 80.16 288.24 84.26 287.52 88.28 C 287.07 90.98 289.36 93.63 288.12 96.26 C 287.22 99.05 285.54 101.48 283.46 103.51 C 281.26 105.73 280.65 109.16 278.03 111.01 C 274.49 113.69 269.83 114.39 266.50 117.43 C 261.49 120.41 257.46 126.10 251.06 125.77 C 247.58 125.36 244.17 126.02 240.96 127.39 C 239.57 126.42 238.24 125.34 236.74 124.55 C 233.91 124.00 231.03 124.88 228.17 124.71 C 226.68 124.04 225.41 123.00 224.08 122.09 C 222.73 123.94 221.14 125.73 220.54 127.99 C 220.04 130.65 221.13 133.24 221.72 135.80 C 220.50 136.23 219.28 136.66 218.06 137.05 C 213.92 136.17 209.85 135.02 205.80 133.80 C 208.96 131.93 212.40 130.59 215.49 128.61 C 217.99 126.40 219.65 123.43 221.63 120.79 C 217.32 119.74 213.30 117.80 209.11 116.43 C 206.56 117.19 205.01 119.48 203.25 121.29 C 201.06 123.84 197.92 125.20 195.38 127.33 C 193.51 128.77 191.82 130.55 189.58 131.42 C 186.23 132.34 182.78 130.57 179.43 131.48 C 177.00 132.12 174.33 131.67 172.10 133.04 C 171.34 133.31 170.57 133.57 169.81 133.82 C 168.99 136.85 168.45 139.93 167.72 142.97 C 165.41 144.79 163.01 146.75 159.93 146.85 C 159.70 144.70 161.04 142.91 161.89 141.06 C 158.35 142.62 155.68 145.56 152.17 147.18 C 149.17 148.95 145.40 149.12 142.78 151.58 C 139.99 150.19 136.98 149.32 133.86 149.11 C 132.74 147.39 131.67 145.65 130.65 143.88 C 130.85 142.62 131.62 141.27 130.92 140.04 C 128.81 135.91 129.47 131.12 129.64 126.66 C 131.75 120.86 135.37 115.77 138.57 110.53 C 137.51 109.36 136.47 108.20 135.42 107.04 C 137.95 99.17 142.22 91.90 147.91 85.92 C 150.32 82.28 151.29 77.66 154.61 74.63 C 156.24 73.21 158.50 72.51 159.83 70.77 C 161.62 66.78 163.17 62.43 166.61 59.51 C 169.25 57.29 173.17 57.88 175.92 55.96 C 176.98 51.61 180.59 48.64 184.62 47.07 C 187.06 46.97 189.54 48.37 191.91 47.19 C 196.34 45.47 201.37 46.11 205.48 43.44 C 205.31 44.69 205.14 45.93 204.96 47.18 Z" />
<path fill="#f7c380" d=" M 302.17 45.33 C 302.89 45.78 302.89 45.78 302.17 45.33 Z" />
<path fill="#fbdfbb" d=" M 261.77 54.43 C 264.63 53.89 267.71 51.65 270.53 53.50 C 273.21 55.13 276.93 55.88 278.31 58.98 C 278.42 61.37 278.99 64.88 276.20 65.98 C 273.53 59.99 266.66 58.13 261.77 54.43 Z" />
<path fill="#f7c380" d=" M 286.97 57.33 C 290.38 57.44 285.48 60.22 286.97 57.33 Z" />
<path fill="#000000" d=" M 215.63 61.97 C 216.71 59.99 218.57 57.76 220.98 57.69 C 224.30 59.48 225.44 63.60 225.07 67.13 C 223.96 68.57 223.18 70.91 221.02 70.95 C 217.69 71.49 215.16 68.94 213.28 66.58 C 212.78 64.75 212.61 60.63 215.63 61.97 Z" />
<path fill="#f7c380" d=" M 306.21 61.15 C 306.73 61.84 306.73 61.84 306.21 61.15 Z" />
<path fill="#fbdfbb" d=" M 301.88 67.63 C 305.51 66.69 307.85 63.49 309.11 60.14 C 309.77 65.39 310.76 70.68 310.07 75.99 C 308.82 86.47 303.59 96.04 297.18 104.25 C 289.84 114.09 280.68 122.73 269.87 128.65 C 259.21 134.60 246.96 136.89 234.93 137.93 C 229.30 138.52 223.61 138.02 218.06 137.05 C 219.28 136.66 220.50 136.23 221.72 135.80 C 221.13 133.24 220.04 130.65 220.54 127.99 C 221.14 125.73 222.73 123.94 224.08 122.09 C 225.41 123.00 226.68 124.04 228.17 124.71 C 231.03 124.88 233.91 124.00 236.74 124.55 C 238.24 125.34 239.57 126.42 240.96 127.39 C 244.17 126.02 247.58 125.36 251.06 125.77 C 257.46 126.10 261.49 120.41 266.50 117.43 C 269.83 114.39 274.49 113.69 278.03 111.01 C 280.65 109.16 281.26 105.73 283.46 103.51 C 285.54 101.48 287.22 99.05 288.12 96.26 C 289.36 93.63 287.07 90.98 287.52 88.28 C 288.24 84.26 288.75 80.16 288.51 76.07 C 287.90 74.24 286.80 72.62 286.20 70.79 C 286.51 68.14 287.30 65.58 287.80 62.96 C 291.29 66.78 296.81 68.63 301.88 67.63 Z" />
<path fill="#fbdfbb" d=" M 281.98 127.81 C 294.43 118.03 304.45 105.11 311.17 90.81 C 311.96 92.18 313.36 94.32 311.48 95.49 C 308.94 97.22 308.70 100.54 306.45 102.47 C 303.93 105.03 303.84 109.01 301.58 111.77 C 298.54 115.47 294.66 118.60 292.66 123.05 C 291.41 126.54 287.51 127.72 285.10 130.23 C 283.98 132.37 284.45 135.64 281.84 136.82 C 276.86 139.77 271.53 142.29 265.85 143.54 C 263.87 143.89 262.31 145.20 260.70 146.30 C 257.17 144.76 253.44 146.14 251.62 149.49 C 251.36 149.50 250.84 149.51 250.58 149.52 C 249.11 149.36 247.79 149.99 246.52 150.61 C 243.29 150.64 240.09 149.47 236.87 150.20 C 232.79 150.52 227.93 151.88 224.71 148.55 C 223.40 153.39 223.82 158.24 224.71 163.10 C 223.83 164.16 222.96 165.25 222.10 166.33 C 226.05 171.28 220.05 176.76 222.19 182.03 C 224.14 187.68 219.86 193.46 222.18 199.06 C 222.49 201.35 224.86 201.96 226.54 203.00 C 229.26 213.49 230.13 224.35 232.47 234.93 C 233.64 245.55 232.95 256.29 234.24 266.91 C 234.49 268.53 236.33 269.70 237.93 269.50 C 243.87 268.91 249.49 266.40 255.54 266.49 C 256.31 268.68 258.45 268.57 260.34 268.61 C 260.18 273.02 262.85 276.80 265.64 279.96 C 265.54 281.16 265.43 282.38 264.90 283.48 C 264.11 283.44 263.33 283.40 262.54 283.37 C 263.22 288.21 258.17 290.60 255.87 294.12 C 254.98 294.32 254.09 294.51 253.19 294.70 C 252.81 295.83 252.45 296.97 252.09 298.12 C 249.65 298.95 247.15 299.80 245.18 301.55 C 243.29 301.47 241.51 300.84 239.77 300.14 C 239.15 298.42 238.57 296.68 238.05 294.93 C 234.90 294.43 232.32 292.94 230.93 289.99 C 226.28 288.33 223.26 283.64 218.01 283.44 C 217.23 284.50 216.45 285.55 215.67 286.61 C 210.30 287.31 204.04 285.39 199.75 289.69 C 192.90 291.71 186.28 294.39 179.54 296.75 C 177.76 297.30 176.20 298.33 174.75 299.48 C 178.03 298.11 181.52 297.39 184.97 296.56 C 182.12 299.30 177.96 299.79 174.56 301.62 C 171.56 303.36 168.18 301.88 165.42 300.42 C 162.87 298.91 159.83 299.99 157.06 299.36 C 157.28 303.63 154.03 306.55 151.61 309.61 C 146.15 309.95 140.83 311.85 135.35 311.60 C 135.68 309.25 137.35 307.51 138.77 305.75 C 142.51 301.34 145.49 296.37 148.42 291.40 C 150.31 291.02 152.19 290.63 154.08 290.24 C 154.30 289.66 154.53 289.09 154.75 288.52 C 156.80 288.44 158.85 287.90 160.08 286.12 C 162.70 282.75 166.42 280.63 170.19 278.80 C 175.16 280.45 180.02 278.00 185.01 278.41 C 190.77 278.77 196.93 275.86 199.64 270.65 C 201.14 267.87 199.87 264.35 201.88 261.78 C 203.87 258.85 204.38 255.25 206.11 252.20 C 208.93 250.66 212.60 250.40 214.59 247.56 C 217.08 244.29 219.37 240.62 220.37 236.61 C 219.90 229.74 221.85 222.99 222.04 216.17 C 219.58 209.93 213.66 206.34 208.31 202.85 C 209.24 201.56 210.17 200.27 211.10 198.99 C 208.43 198.18 206.30 196.26 205.81 193.41 C 204.36 195.43 202.95 197.46 201.61 199.55 C 200.58 198.51 199.55 197.47 198.53 196.42 C 196.97 200.00 192.93 198.07 190.17 197.44 C 190.73 200.29 192.31 203.23 191.22 206.15 C 190.64 208.17 189.74 210.10 189.30 212.16 C 189.60 216.13 192.04 219.96 190.73 223.99 C 189.63 228.47 192.19 232.68 194.50 236.31 C 193.69 238.61 192.65 240.88 192.35 243.32 C 192.34 246.11 193.34 248.77 193.92 251.46 C 190.48 252.25 186.65 252.51 183.84 254.86 C 182.38 256.55 181.45 258.62 180.02 260.33 C 179.97 255.82 181.07 251.35 180.33 246.85 C 179.52 243.74 182.56 241.76 183.32 239.06 C 182.98 235.98 182.56 232.91 182.52 229.81 C 180.39 228.49 178.15 227.31 176.26 225.65 C 174.68 223.71 175.42 220.32 173.03 218.94 C 170.72 217.52 167.87 217.61 165.43 216.53 C 162.93 214.59 162.18 211.30 160.21 208.94 C 157.23 207.60 154.55 205.77 151.87 203.94 C 149.22 203.08 146.42 202.83 143.70 202.24 C 142.53 200.61 141.33 199.00 140.12 197.40 C 136.74 197.53 133.28 197.78 130.13 199.10 C 127.04 200.88 124.68 203.88 121.13 204.86 C 119.05 205.77 116.26 205.84 115.01 208.00 C 114.04 209.28 113.30 210.75 112.15 211.88 C 110.42 212.93 108.44 213.54 106.79 214.72 C 104.46 217.19 105.57 221.53 102.54 223.56 C 99.07 226.43 96.59 230.45 95.92 234.94 C 94.93 238.69 96.19 242.73 94.67 246.36 C 93.06 250.19 93.13 254.70 94.88 258.47 C 96.02 260.92 98.09 262.76 99.58 264.99 C 98.74 268.86 95.21 271.60 93.37 275.08 C 94.17 275.40 94.98 275.73 95.80 276.07 C 94.85 277.60 93.90 279.12 92.94 280.65 C 94.67 282.78 95.61 285.32 95.42 288.09 C 95.75 284.90 96.11 281.64 97.47 278.70 C 99.18 274.83 103.77 273.03 104.91 268.82 C 106.44 264.33 108.74 260.09 109.45 255.36 C 109.68 252.74 111.58 250.84 113.13 248.88 C 112.81 246.68 112.54 244.47 112.33 242.26 C 113.98 240.40 115.90 238.72 117.23 236.61 C 117.74 233.70 117.50 230.59 118.84 227.89 C 120.06 225.53 122.17 223.84 124.07 222.06 C 127.37 223.27 126.82 227.10 128.25 229.67 C 129.37 230.74 131.04 230.90 132.41 231.54 C 126.53 233.94 120.47 238.30 119.18 244.91 C 118.57 247.48 119.67 249.74 121.58 251.39 C 121.57 251.49 121.55 251.70 121.54 251.81 C 119.27 253.13 119.07 255.87 117.96 257.99 C 115.88 260.30 112.94 261.67 110.95 264.09 C 110.04 265.97 110.89 268.38 109.50 270.11 C 109.76 271.04 110.01 271.97 110.28 272.90 C 107.75 277.89 108.26 283.62 108.64 289.01 C 108.85 292.66 112.17 294.72 114.52 297.05 C 115.16 296.97 115.81 296.90 116.45 296.83 C 119.23 298.71 121.61 302.47 125.43 301.61 C 130.03 301.04 134.41 299.36 138.98 298.56 C 136.88 302.25 134.51 305.87 133.25 309.96 C 132.83 312.21 135.19 313.27 137.06 313.26 C 140.37 313.07 143.65 312.54 146.94 312.11 C 146.44 313.46 146.41 315.24 144.98 316.01 C 141.84 317.37 138.52 318.25 135.31 319.42 C 134.87 320.17 134.42 320.93 133.97 321.68 C 126.43 323.68 118.47 322.59 110.75 322.65 C 107.66 321.44 104.40 320.87 101.14 320.37 C 96.91 319.56 93.76 316.42 90.51 313.85 C 85.97 313.13 80.26 310.84 76.43 314.44 C 73.90 316.85 70.15 316.32 67.25 318.03 C 66.78 318.22 66.33 318.45 65.89 318.72 C 65.63 318.91 65.11 319.30 64.85 319.49 C 63.93 318.26 63.06 316.97 61.93 315.92 C 59.32 314.85 56.47 315.53 53.77 314.99 C 54.46 311.72 54.99 308.41 55.59 305.12 C 56.15 304.89 57.26 304.42 57.81 304.19 C 57.76 303.83 57.66 303.10 57.61 302.74 C 53.05 302.10 48.47 302.25 43.90 302.51 C 41.23 298.36 43.56 293.83 43.65 289.41 C 43.68 288.04 44.57 286.94 45.16 285.78 C 47.85 286.97 50.22 288.76 52.90 289.94 C 54.65 290.00 56.39 289.79 58.13 289.65 C 60.09 281.53 61.07 273.20 63.12 265.11 C 64.47 262.88 65.96 260.67 66.40 258.06 C 67.00 254.42 70.10 251.78 70.40 248.06 C 70.60 243.85 75.08 241.84 76.08 237.94 C 77.91 233.81 76.97 229.09 78.84 224.98 C 79.79 222.05 81.91 219.72 83.08 216.91 C 84.11 212.58 83.70 207.84 85.88 203.85 C 87.48 202.67 89.39 202.01 91.18 201.18 C 91.90 198.13 92.00 194.70 94.06 192.17 C 96.15 189.49 99.39 188.19 102.27 186.58 C 102.63 184.85 102.89 183.09 103.50 181.42 C 105.65 179.34 108.24 177.75 110.38 175.65 C 113.67 183.30 120.28 190.27 128.97 191.07 C 137.38 192.83 144.57 187.10 150.34 181.80 C 150.59 182.58 151.09 184.13 151.35 184.91 C 153.69 185.19 156.26 185.90 158.28 184.23 C 156.77 182.24 155.31 180.21 153.93 178.13 C 163.74 166.33 170.45 151.97 173.28 136.89 C 173.67 135.38 173.28 134.10 172.10 133.04 C 174.33 131.67 177.00 132.12 179.43 131.48 C 182.78 130.57 186.23 132.34 189.58 131.42 C 191.82 130.55 193.51 128.77 195.38 127.33 C 197.92 125.20 201.06 123.84 203.25 121.29 C 205.01 119.48 206.56 117.19 209.11 116.43 C 213.30 117.80 217.32 119.74 221.63 120.79 C 219.65 123.43 217.99 126.40 215.49 128.61 C 212.40 130.59 208.96 131.93 205.80 133.80 C 204.33 133.53 202.35 132.90 201.24 134.28 C 199.56 135.78 200.01 139.16 202.26 139.94 C 210.64 142.45 219.18 145.21 228.05 144.76 C 247.07 144.52 266.82 139.80 281.98 127.81 Z" />
<path fill="#fffffe" d=" M 114.27 129.81 C 117.41 117.08 123.13 105.19 129.19 93.62 C 129.73 96.04 130.40 98.45 130.62 100.93 C 131.08 103.64 129.15 105.87 128.28 108.29 C 126.93 111.21 127.46 114.83 125.24 117.35 C 123.10 119.84 122.18 123.00 120.97 125.98 C 118.82 127.39 116.40 128.34 114.27 129.81 Z" />
<path fill="#fffffe" d=" M 111.57 145.70 C 112.14 140.45 112.89 135.22 114.20 130.10 C 115.25 133.16 115.95 136.43 115.51 139.68 C 114.53 141.88 112.93 143.73 111.57 145.70 Z" />
<path fill="#000000" d=" M 234.99 147.43 C 235.49 146.43 237.53 145.68 238.71 145.81 C 239.60 147.74 236.14 148.04 234.99 147.43 Z" />
<path fill="#fffffe" d=" M 224.71 148.55 C 227.93 151.88 232.79 150.52 236.87 150.20 C 240.09 149.47 243.29 150.64 246.52 150.61 C 239.52 154.19 235.62 161.42 231.88 167.98 C 225.40 178.25 223.72 191.28 226.54 203.00 C 224.86 201.96 222.49 201.35 222.18 199.06 C 219.86 193.46 224.14 187.68 222.19 182.03 C 220.05 176.76 226.05 171.28 222.10 166.33 C 222.96 165.25 223.83 164.16 224.71 163.10 C 223.82 158.24 223.40 153.39 224.71 148.55 Z" />
<path fill="#000000" d=" M 246.52 150.61 C 247.79 149.99 249.11 149.36 250.58 149.52 C 241.44 153.19 237.09 162.60 232.78 170.76 C 228.22 178.30 227.44 187.42 227.94 196.02 C 230.91 214.04 236.17 231.76 236.41 250.10 C 236.71 255.68 236.31 261.26 236.16 266.84 C 236.40 267.15 236.87 267.77 237.11 268.08 C 243.74 267.04 250.01 264.10 256.81 264.08 C 262.72 263.74 268.21 266.65 272.48 270.52 C 280.15 277.17 284.01 287.09 285.98 296.82 C 287.46 302.48 284.24 308.59 279.04 311.05 C 267.85 317.12 254.12 315.30 243.00 310.01 C 238.21 307.64 233.82 304.54 229.05 302.12 C 229.19 301.48 229.46 300.21 229.60 299.57 C 237.48 302.07 244.06 307.79 252.20 309.79 C 260.61 312.52 270.28 312.56 278.12 308.12 C 281.78 306.32 283.73 301.84 282.84 297.92 C 281.00 287.87 277.23 277.52 269.10 270.85 C 265.21 268.00 260.42 266.14 255.54 266.49 C 249.49 266.40 243.87 268.91 237.93 269.50 C 236.33 269.70 234.49 268.53 234.24 266.91 C 232.95 256.29 233.64 245.55 232.47 234.93 C 230.13 224.35 229.26 213.49 226.54 203.00 C 223.72 191.28 225.40 178.25 231.88 167.98 C 235.62 161.42 239.52 154.19 246.52 150.61 Z" />
<path fill="#fffffe" d=" M 107.78 173.58 C 107.98 173.96 108.38 174.70 108.58 175.08 C 108.91 174.74 109.56 174.07 109.89 173.73 C 110.01 174.21 110.26 175.17 110.38 175.65 C 108.24 177.75 105.65 179.34 103.50 181.42 C 102.89 183.09 102.63 184.85 102.27 186.58 C 99.39 188.19 96.15 189.49 94.06 192.17 C 92.00 194.70 91.90 198.13 91.18 201.18 C 89.39 202.01 87.48 202.67 85.88 203.85 C 83.70 207.84 84.11 212.58 83.08 216.91 C 81.91 219.72 79.79 222.05 78.84 224.98 C 76.97 229.09 77.91 233.81 76.08 237.94 C 75.08 241.84 70.60 243.85 70.40 248.06 C 70.10 251.78 67.00 254.42 66.40 258.06 C 65.96 260.67 64.47 262.88 63.12 265.11 C 65.89 252.10 68.23 238.86 73.40 226.54 C 77.73 215.07 82.93 203.85 89.37 193.41 C 94.96 186.37 99.59 177.96 107.78 173.58 Z" />
<path fill="#fffffe" d=" M 150.34 181.80 C 151.56 180.60 152.77 179.39 153.93 178.13 C 155.31 180.21 156.77 182.24 158.28 184.23 C 156.26 185.90 153.69 185.19 151.35 184.91 C 151.09 184.13 150.59 182.58 150.34 181.80 Z" />
<path fill="#f7c380" d=" M 201.61 199.55 C 202.95 197.46 204.36 195.43 205.81 193.41 C 206.30 196.26 208.43 198.18 211.10 198.99 C 210.17 200.27 209.24 201.56 208.31 202.85 C 213.66 206.34 219.58 209.93 222.04 216.17 C 221.85 222.99 219.90 229.74 220.37 236.61 C 219.37 240.62 217.08 244.29 214.59 247.56 C 212.60 250.40 208.93 250.66 206.11 252.20 C 204.38 255.25 203.87 258.85 201.88 261.78 C 199.87 264.35 201.14 267.87 199.64 270.65 C 196.93 275.86 190.77 278.77 185.01 278.41 C 180.02 278.00 175.16 280.45 170.19 278.80 C 166.42 280.63 162.70 282.75 160.08 286.12 C 158.85 287.90 156.80 288.44 154.75 288.52 C 154.53 289.09 154.30 289.66 154.08 290.24 C 152.19 290.63 150.31 291.02 148.42 291.40 C 154.91 279.18 163.21 266.38 161.69 251.91 C 160.75 245.69 158.83 239.14 154.03 234.76 C 154.12 231.32 155.06 227.99 156.80 225.02 C 154.55 225.18 152.27 225.41 150.20 226.38 C 146.23 228.18 141.87 228.63 137.70 229.76 C 135.90 230.22 134.14 230.85 132.41 231.54 C 131.04 230.90 129.37 230.74 128.25 229.67 C 126.82 227.10 127.37 223.27 124.07 222.06 C 122.17 223.84 120.06 225.53 118.84 227.89 C 117.50 230.59 117.74 233.70 117.23 236.61 C 115.90 238.72 113.98 240.40 112.33 242.26 C 112.54 244.47 112.81 246.68 113.13 248.88 C 111.58 250.84 109.68 252.74 109.45 255.36 C 108.74 260.09 106.44 264.33 104.91 268.82 C 103.77 273.03 99.18 274.83 97.47 278.70 C 96.11 281.64 95.75 284.90 95.42 288.09 C 95.61 285.32 94.67 282.78 92.94 280.65 C 93.90 279.12 94.85 277.60 95.80 276.07 C 94.98 275.73 94.17 275.40 93.37 275.08 C 95.21 271.60 98.74 268.86 99.58 264.99 C 98.09 262.76 96.02 260.92 94.88 258.47 C 93.13 254.70 93.06 250.19 94.67 246.36 C 96.19 242.73 94.93 238.69 95.92 234.94 C 96.59 230.45 99.07 226.43 102.54 223.56 C 105.57 221.53 104.46 217.19 106.79 214.72 C 108.44 213.54 110.42 212.93 112.15 211.88 C 113.30 210.75 114.04 209.28 115.01 208.00 C 116.26 205.84 119.05 205.77 121.13 204.86 C 124.68 203.88 127.04 200.88 130.13 199.10 C 133.28 197.78 136.74 197.53 140.12 197.40 C 141.33 199.00 142.53 200.61 143.70 202.24 C 146.42 202.83 149.22 203.08 151.87 203.94 C 154.55 205.77 157.23 207.60 160.21 208.94 C 162.18 211.30 162.93 214.59 165.43 216.53 C 167.87 217.61 170.72 217.52 173.03 218.94 C 175.42 220.32 174.68 223.71 176.26 225.65 C 178.15 227.31 180.39 228.49 182.52 229.81 C 182.56 232.91 182.98 235.98 183.32 239.06 C 182.56 241.76 179.52 243.74 180.33 246.85 C 181.07 251.35 179.97 255.82 180.02 260.33 C 181.45 258.62 182.38 256.55 183.84 254.86 C 186.65 252.51 190.48 252.25 193.92 251.46 C 193.34 248.77 192.34 246.11 192.35 243.32 C 192.65 240.88 193.69 238.61 194.50 236.31 C 192.19 232.68 189.63 228.47 190.73 223.99 C 192.04 219.96 189.60 216.13 189.30 212.16 C 189.74 210.10 190.64 208.17 191.22 206.15 C 192.31 203.23 190.73 200.29 190.17 197.44 C 192.93 198.07 196.97 200.00 198.53 196.42 C 199.55 197.47 200.58 198.51 201.61 199.55 Z" />
<path fill="#fbdfbb" d=" M 150.20 226.38 C 152.27 225.41 154.55 225.18 156.80 225.02 C 155.06 227.99 154.12 231.32 154.03 234.76 C 149.92 230.45 143.52 228.49 137.70 229.76 C 141.87 228.63 146.23 228.18 150.20 226.38 Z" />
<path fill="#000000" d=" M 132.41 231.54 C 134.14 230.85 135.90 230.22 137.70 229.76 C 143.52 228.49 149.92 230.45 154.03 234.76 C 158.83 239.14 160.75 245.69 161.69 251.91 C 163.21 266.38 154.91 279.18 148.42 291.40 C 145.49 296.37 142.51 301.34 138.77 305.75 C 137.35 307.51 135.68 309.25 135.35 311.60 C 140.83 311.85 146.15 309.95 151.61 309.61 C 155.68 309.20 159.81 308.92 163.90 309.29 C 168.38 310.83 168.43 317.28 165.19 320.14 C 156.91 328.63 143.83 329.60 132.69 328.37 C 132.63 327.90 132.50 326.95 132.44 326.48 C 132.76 326.30 133.41 325.95 133.73 325.77 C 143.82 327.16 155.11 325.78 163.19 319.10 C 165.31 317.43 165.81 314.64 165.11 312.14 C 164.57 311.95 163.48 311.58 162.94 311.40 C 157.61 311.40 152.25 311.56 146.94 312.11 C 143.65 312.54 140.37 313.07 137.06 313.26 C 135.19 313.27 132.83 312.21 133.25 309.96 C 134.51 305.87 136.88 302.25 138.98 298.56 C 145.21 287.69 152.18 277.08 156.48 265.24 C 159.79 255.66 158.70 243.62 151.32 236.20 C 147.81 233.00 142.58 230.88 137.91 232.53 C 132.10 234.00 126.05 236.41 122.40 241.41 C 120.90 243.64 119.38 246.56 120.74 249.22 L 121.73 249.81 C 121.69 250.20 121.62 250.99 121.58 251.39 C 119.67 249.74 118.57 247.48 119.18 244.91 C 120.47 238.30 126.53 233.94 132.41 231.54 Z" />
<path fill="#fbdfbb" d=" M 137.91 232.53 C 142.58 230.88 147.81 233.00 151.32 236.20 C 148.70 236.97 146.17 238.11 144.36 240.21 C 143.58 239.47 142.81 238.74 142.04 238.01 C 141.34 238.81 140.65 239.62 139.96 240.43 C 138.94 240.07 137.93 239.71 136.91 239.35 C 134.36 241.45 131.46 243.03 128.62 244.69 C 126.88 246.43 125.59 248.56 124.03 250.46 C 123.26 250.25 122.50 250.03 121.73 249.81 L 120.74 249.22 C 119.38 246.56 120.90 243.64 122.40 241.41 C 126.05 236.41 132.10 234.00 137.91 232.53 Z" />
<path fill="#f7c380" d=" M 144.36 240.21 C 146.17 238.11 148.70 236.97 151.32 236.20 C 158.70 243.62 159.79 255.66 156.48 265.24 C 152.18 277.08 145.21 287.69 138.98 298.56 C 134.41 299.36 130.03 301.04 125.43 301.61 C 121.61 302.47 119.23 298.71 116.45 296.83 C 115.81 296.90 115.16 296.97 114.52 297.05 C 112.17 294.72 108.85 292.66 108.64 289.01 C 108.26 283.62 107.75 277.89 110.28 272.90 C 110.01 271.97 109.76 271.04 109.50 270.11 C 110.89 268.38 110.04 265.97 110.95 264.09 C 112.94 261.67 115.88 260.30 117.96 257.99 C 119.07 255.87 119.27 253.13 121.54 251.81 C 121.55 251.70 121.57 251.49 121.58 251.39 C 121.62 250.99 121.69 250.20 121.73 249.81 C 122.50 250.03 123.26 250.25 124.03 250.46 C 125.59 248.56 126.88 246.43 128.62 244.69 C 131.46 243.03 134.36 241.45 136.91 239.35 C 137.93 239.71 138.94 240.07 139.96 240.43 C 140.65 239.62 141.34 238.81 142.04 238.01 C 142.81 238.74 143.58 239.47 144.36 240.21 Z" />
<path fill="#fbdfbb" d=" M 236.41 250.10 C 237.91 251.26 239.41 252.41 240.94 253.54 C 245.12 252.62 247.80 256.34 251.23 257.92 C 253.88 259.13 255.20 261.83 256.81 264.08 C 250.01 264.10 243.74 267.04 237.11 268.08 C 236.87 267.77 236.40 267.15 236.16 266.84 C 236.31 261.26 236.71 255.68 236.41 250.10 Z" />
<path fill="#fbdfbb" d=" M 35.35 280.36 C 38.40 272.52 49.85 271.44 55.83 276.60 C 55.04 280.33 54.32 284.07 53.52 287.80 C 48.29 283.71 41.75 281.74 35.35 280.36 Z" />
<path fill="#fffffe" d=" M 28.04 283.93 C 33.62 281.42 39.72 284.19 45.16 285.78 C 44.57 286.94 43.68 288.04 43.65 289.41 C 43.56 293.83 41.23 298.36 43.90 302.51 C 40.00 302.62 35.96 302.51 32.38 300.77 C 29.94 299.59 26.96 299.16 25.10 297.02 C 21.40 293.18 23.14 285.89 28.04 283.93 Z" />
<path fill="#000000" d=" M 199.75 289.69 C 204.37 289.02 208.85 287.50 213.53 287.25 C 213.63 287.80 213.83 288.88 213.93 289.42 C 210.23 290.78 206.21 290.60 202.43 291.65 C 196.61 293.27 190.77 294.86 184.97 296.56 C 181.52 297.39 178.03 298.11 174.75 299.48 C 176.20 298.33 177.76 297.30 179.54 296.75 C 186.28 294.39 192.90 291.71 199.75 289.69 Z" />
<path fill="#fffffe" d=" M 76.43 314.44 C 80.26 310.84 85.97 313.13 90.51 313.85 C 93.76 316.42 96.91 319.56 101.14 320.37 C 104.40 320.87 107.66 321.44 110.75 322.65 C 102.69 322.45 94.58 322.89 86.56 321.76 C 80.04 321.02 73.64 319.49 67.25 318.03 C 70.15 316.32 73.90 316.85 76.43 314.44 Z" />
<path fill="#000000" d=" M 65.89 318.72 C 66.33 318.45 66.78 318.22 67.25 318.03 C 73.64 319.49 80.04 321.02 86.56 321.76 C 94.58 322.89 102.69 322.45 110.75 322.65 C 118.47 322.59 126.43 323.68 133.97 321.68 C 133.66 323.00 131.91 322.99 130.85 323.39 C 121.64 324.93 112.28 325.01 102.96 324.99 C 92.77 325.62 82.50 325.10 72.46 323.20 C 69.65 322.82 67.92 320.41 65.89 318.72 Z" />
</svg>
