<?xml version="1.0" encoding="UTF-8" standalone="no"?>
<svg width="33px" height="31px" viewBox="0 0 33 31" version="1.1" xmlns="http://www.w3.org/2000/svg" xmlns:xlink="http://www.w3.org/1999/xlink">
    <!-- Generator: Sketch 3.8.3 (29802) - http://www.bohemiancoding.com/sketch -->
    <title>tail</title>
    <desc>Created with Sketch.</desc>
    <defs></defs>
    <g id="Page-1" stroke="none" stroke-width="1" fill="none" fill-rule="evenodd">
        <g id="dog_00.min" transform="translate(-20.000000, -275.000000)">
            <g id="Group" transform="translate(20.000000, 34.000000)" fill="#000000">
                <path d="M195.91,0.31 L194.72,0.63 C193.63,0.89 192.54,1.13 191.44,1.35 C185.02,2.09 178.52,1.92 172.13,3 C161.98,4.9 153.31,11.08 145.46,17.46 C130.32,28.47 118.05,43.19 109.19,59.62 C103.13,71.19 97.41,83.08 94.27,95.81 C92.89,101.22 92.14,106.45 91.57,111.7 C90.33,122.18 89.66,133.44 94.94,143.01 C98.46,150.99 107.94,156.35 116.5,153.6 C122.04,151.22 126.59,146.98 130.74,142.7 C138.65,132.81 144.65,121.29 147.72,108.97 C148.45,105.93 148.99,102.85 149.81,99.82 C150.57,99.57 151.34,99.31 152.1,99.04 C153.28,100.1 153.67,101.38 153.28,102.89 C150.45,117.97 143.74,132.33 133.93,144.13 C132.77,145.39 131.56,146.6 130.34,147.8 C124.57,153.1 117.38,158.83 108.97,157.07 C100.28,156.27 93.67,149.3 90.38,141.65 C90.26,141.17 90.01,140.21 89.89,139.73 L88.58,141.08 C88.38,140.7 87.98,139.96 87.78,139.58 C79.59,143.96 74.96,152.37 69.37,159.41 C62.93,169.85 57.73,181.07 53.4,192.54 C48.23,204.86 45.89,218.1 43.12,231.11 C41.07,239.2 40.09,247.53 38.13,255.65 C36.39,255.79 34.65,256 32.9,255.94 C30.22,254.76 27.85,252.97 25.16,251.78 C19.72,250.19 13.62,247.42 8.04,249.93 C3.14,251.89 1.4,259.18 5.1,263.02 C6.96,265.16 9.94,265.59 12.38,266.77 C15.96,268.51 20,268.62 23.9,268.51 C28.47,268.25 33.05,268.1 37.61,268.74 L37.81,270.19 C37.26,270.42 36.15,270.89 35.59,271.12 C34.99,274.41 34.46,277.72 33.77,280.99 C31.71,282.33 29.96,283.38 28.22,284.45 C28.64,280.13 29.56,275.87 29.99,271.54 C22.5,271.75 14.86,270.88 7.82,268.23 C4.65,267.09 1.96,264.63 0.75,261.47 C-1.04,256.33 1.32,249.87 6.35,247.54 C9.07,246 12.34,246.06 15.35,246.36 C21.75,247.74 28.29,249.71 33.52,253.8 C34.32,250.07 35.04,246.33 35.83,242.6 C38.99,228.34 41.94,213.99 46.39,200.06 C52.73,183.27 60.46,166.8 71.4,152.49 C76.43,147.01 81.07,139.69 89.06,138.57 C87.06,132.95 86.75,126.92 86.74,121.02 C87.13,112.98 87.73,104.9 89.65,97.06 C93.1,82.49 99.66,68.88 107.03,55.92 C111.35,48.79 115.92,41.74 121.49,35.51 C127.16,29.83 132.41,23.65 138.99,18.98 C142.71,16.34 146.3,13.52 150.01,10.87 C157.14,5.16 165.92,1.15 175.12,0.64 C182.02,0.02 188.99,0.5 195.91,0.31 Z" id="Shape"></path>
            </g>
            <g id="Group-Copy" transform="translate(20.000000, 34.000000)"></g>
            <path d="M281.98,127.81 C294.43,118.03 304.45,105.11 311.17,90.81 C311.96,92.18 313.36,94.32 311.48,95.49 C308.94,97.22 308.7,100.54 306.45,102.47 C303.93,105.03 303.84,109.01 301.58,111.77 C298.54,115.47 294.66,118.6 292.66,123.05 C291.41,126.54 287.51,127.72 285.1,130.23 C283.98,132.37 284.45,135.64 281.84,136.82 C276.86,139.77 271.53,142.29 265.85,143.54 C263.87,143.89 262.31,145.2 260.7,146.3 C257.17,144.76 253.44,146.14 251.62,149.49 C251.36,149.5 250.84,149.51 250.58,149.52 C249.11,149.36 247.79,149.99 246.52,150.61 C243.29,150.64 240.09,149.47 236.87,150.2 C232.79,150.52 227.93,151.88 224.71,148.55 C223.4,153.39 223.82,158.24 224.71,163.1 C223.83,164.16 222.96,165.25 222.1,166.33 C226.05,171.28 220.05,176.76 222.19,182.03 C224.14,187.68 219.86,193.46 222.18,199.06 C222.49,201.35 224.86,201.96 226.54,203 C229.26,213.49 230.13,224.35 232.47,234.93 C233.64,245.55 232.95,256.29 234.24,266.91 C234.49,268.53 236.33,269.7 237.93,269.5 C243.87,268.91 249.49,266.4 255.54,266.49 C256.31,268.68 258.45,268.57 260.34,268.61 C260.18,273.02 262.85,276.8 265.64,279.96 C265.54,281.16 265.43,282.38 264.9,283.48 C264.11,283.44 263.33,283.4 262.54,283.37 C263.22,288.21 258.17,290.6 255.87,294.12 C254.98,294.32 254.09,294.51 253.19,294.7 C252.81,295.83 252.45,296.97 252.09,298.12 C249.65,298.95 247.15,299.8 245.18,301.55 C243.29,301.47 241.51,300.84 239.77,300.14 C239.15,298.42 238.57,296.68 238.05,294.93 C234.9,294.43 232.32,292.94 230.93,289.99 C226.28,288.33 223.26,283.64 218.01,283.44 C217.23,284.5 216.45,285.55 215.67,286.61 C210.3,287.31 204.04,285.39 199.75,289.69 C192.9,291.71 186.28,294.39 179.54,296.75 C177.76,297.3 176.2,298.33 174.75,299.48 C178.03,298.11 181.52,297.39 184.97,296.56 C182.12,299.3 177.96,299.79 174.56,301.62 C171.56,303.36 168.18,301.88 165.42,300.42 C162.87,298.91 159.83,299.99 157.06,299.36 C157.28,303.63 154.03,306.55 151.61,309.61 C146.15,309.95 140.83,311.85 135.35,311.6 C135.68,309.25 137.35,307.51 138.77,305.75 C142.51,301.34 145.49,296.37 148.42,291.4 C150.31,291.02 152.19,290.63 154.08,290.24 C154.3,289.66 154.53,289.09 154.75,288.52 C156.8,288.44 158.85,287.9 160.08,286.12 C162.7,282.75 166.42,280.63 170.19,278.8 C175.16,280.45 180.02,278 185.01,278.41 C190.77,278.77 196.93,275.86 199.64,270.65 C201.14,267.87 199.87,264.35 201.88,261.78 C203.87,258.85 204.38,255.25 206.11,252.2 C208.93,250.66 212.6,250.4 214.59,247.56 C217.08,244.29 219.37,240.62 220.37,236.61 C219.9,229.74 221.85,222.99 222.04,216.17 C219.58,209.93 213.66,206.34 208.31,202.85 C209.24,201.56 210.17,200.27 211.1,198.99 C208.43,198.18 206.3,196.26 205.81,193.41 C204.36,195.43 202.95,197.46 201.61,199.55 C200.58,198.51 199.55,197.47 198.53,196.42 C196.97,200 192.93,198.07 190.17,197.44 C190.73,200.29 192.31,203.23 191.22,206.15 C190.64,208.17 189.74,210.1 189.3,212.16 C189.6,216.13 192.04,219.96 190.73,223.99 C189.63,228.47 192.19,232.68 194.5,236.31 C193.69,238.61 192.65,240.88 192.35,243.32 C192.34,246.11 193.34,248.77 193.92,251.46 C190.48,252.25 186.65,252.51 183.84,254.86 C182.38,256.55 181.45,258.62 180.02,260.33 C179.97,255.82 181.07,251.35 180.33,246.85 C179.52,243.74 182.56,241.76 183.32,239.06 C182.98,235.98 182.56,232.91 182.52,229.81 C180.39,228.49 178.15,227.31 176.26,225.65 C174.68,223.71 175.42,220.32 173.03,218.94 C170.72,217.52 167.87,217.61 165.43,216.53 C162.93,214.59 162.18,211.3 160.21,208.94 C157.23,207.6 154.55,205.77 151.87,203.94 C149.22,203.08 146.42,202.83 143.7,202.24 C142.53,200.61 141.33,199 140.12,197.4 C136.74,197.53 133.28,197.78 130.13,199.1 C127.04,200.88 124.68,203.88 121.13,204.86 C119.05,205.77 116.26,205.84 115.01,208 C114.04,209.28 113.3,210.75 112.15,211.88 C110.42,212.93 108.44,213.54 106.79,214.72 C104.46,217.19 105.57,221.53 102.54,223.56 C99.07,226.43 96.59,230.45 95.92,234.94 C94.93,238.69 96.19,242.73 94.67,246.36 C93.06,250.19 93.13,254.7 94.88,258.47 C96.02,260.92 98.09,262.76 99.58,264.99 C98.74,268.86 95.21,271.6 93.37,275.08 C94.17,275.4 94.98,275.73 95.8,276.07 C94.85,277.6 93.9,279.12 92.94,280.65 C94.67,282.78 95.61,285.32 95.42,288.09 C95.75,284.9 96.11,281.64 97.47,278.7 C99.18,274.83 103.77,273.03 104.91,268.82 C106.44,264.33 108.74,260.09 109.45,255.36 C109.68,252.74 111.58,250.84 113.13,248.88 C112.81,246.68 112.54,244.47 112.33,242.26 C113.98,240.4 115.9,238.72 117.23,236.61 C117.74,233.7 117.5,230.59 118.84,227.89 C120.06,225.53 122.17,223.84 124.07,222.06 C127.37,223.27 126.82,227.1 128.25,229.67 C129.37,230.74 131.04,230.9 132.41,231.54 C126.53,233.94 120.47,238.3 119.18,244.91 C118.57,247.48 119.67,249.74 121.58,251.39 L121.54,251.81 C119.27,253.13 119.07,255.87 117.96,257.99 C115.88,260.3 112.94,261.67 110.95,264.09 C110.04,265.97 110.89,268.38 109.5,270.11 C109.76,271.04 110.01,271.97 110.28,272.9 C107.75,277.89 108.26,283.62 108.64,289.01 C108.85,292.66 112.17,294.72 114.52,297.05 C115.16,296.97 115.81,296.9 116.45,296.83 C119.23,298.71 121.61,302.47 125.43,301.61 C130.03,301.04 134.41,299.36 138.98,298.56 C136.88,302.25 134.51,305.87 133.25,309.96 C132.83,312.21 135.19,313.27 137.06,313.26 C140.37,313.07 143.65,312.54 146.94,312.11 C146.44,313.46 146.41,315.24 144.98,316.01 C141.84,317.37 138.52,318.25 135.31,319.42 C134.87,320.17 134.42,320.93 133.97,321.68 C126.43,323.68 118.47,322.59 110.75,322.65 C107.66,321.44 104.4,320.87 101.14,320.37 C96.91,319.56 93.76,316.42 90.51,313.85 C85.97,313.13 80.26,310.84 76.43,314.44 C73.9,316.85 70.15,316.32 67.25,318.03 C66.78,318.22 66.33,318.45 65.89,318.72 C65.63,318.91 65.11,319.3 64.85,319.49 C63.93,318.26 63.06,316.97 61.93,315.92 C59.32,314.85 56.47,315.53 53.77,314.99 C54.46,311.72 54.99,308.41 55.59,305.12 C56.15,304.89 57.26,304.42 57.81,304.19 L57.61,302.74 C53.05,302.1 48.47,302.25 43.9,302.51 C41.23,298.36 43.56,293.83 43.65,289.41 C43.68,288.04 44.57,286.94 45.16,285.78 C47.85,286.97 50.22,288.76 52.9,289.94 C54.65,290 56.39,289.79 58.13,289.65 C60.09,281.53 61.07,273.2 63.12,265.11 C64.47,262.88 65.96,260.67 66.4,258.06 C67,254.42 70.1,251.78 70.4,248.06 C70.6,243.85 75.08,241.84 76.08,237.94 C77.91,233.81 76.97,229.09 78.84,224.98 C79.79,222.05 81.91,219.72 83.08,216.91 C84.11,212.58 83.7,207.84 85.88,203.85 C87.48,202.67 89.39,202.01 91.18,201.18 C91.9,198.13 92,194.7 94.06,192.17 C96.15,189.49 99.39,188.19 102.27,186.58 C102.63,184.85 102.89,183.09 103.5,181.42 C105.65,179.34 108.24,177.75 110.38,175.65 C113.67,183.3 120.28,190.27 128.97,191.07 C137.38,192.83 144.57,187.1 150.34,181.8 C150.59,182.58 151.09,184.13 151.35,184.91 C153.69,185.19 156.26,185.9 158.28,184.23 C156.77,182.24 155.31,180.21 153.93,178.13 C163.74,166.33 170.45,151.97 173.28,136.89 C173.67,135.38 173.28,134.1 172.1,133.04 C174.33,131.67 177,132.12 179.43,131.48 C182.78,130.57 186.23,132.34 189.58,131.42 C191.82,130.55 193.51,128.77 195.38,127.33 C197.92,125.2 201.06,123.84 203.25,121.29 C205.01,119.48 206.56,117.19 209.11,116.43 C213.3,117.8 217.32,119.74 221.63,120.79 C219.65,123.43 217.99,126.4 215.49,128.61 C212.4,130.59 208.96,131.93 205.8,133.8 C204.33,133.53 202.35,132.9 201.24,134.28 C199.56,135.78 200.01,139.16 202.26,139.94 C210.64,142.45 219.18,145.21 228.05,144.76 C247.07,144.52 266.82,139.8 281.98,127.81 L281.98,127.81 Z" id="Shape" fill="#FBDFBB"></path>
        </g>
    </g>
</svg>