<svg id="b" version="1" xmlns="http://www.w3.org/2000/svg" width="61.333" height="133.333" viewBox="0 0 46.000000 100.000000"><path d="M5.2 6.2c-1.4 1.4-1.6 20.3-.3 27.5.5 2.6 1.4 8.2 2.1 12.3.6 4.1 1.5 9.7 2 12.5.5 2.7 1.4 8.1 2.1 12 .6 3.8 1.5 8.7 1.9 10.9 1 4.5.4 6.7-1.6 5.9-2.1-.8-1.7.5 1.1 3.9 1.4 1.6 2.5 3.5 2.5 4.3 0 .7.7 1.8 1.6 2.6 1.3 1 2.1 1 4.7-.3 1.8-.9 4.3-1.9 5.7-2.2 3.7-.8 8.7-4.2 10.6-7.1 5.2-7.9 7.2-24.6 3.5-29.4-2-2.6-6.2-3.1-8.7-1.1C29 60.9 21 77.8 21 82.2c0 1-.4 1.8-.9 1.8-1.2 0-2.5-5.9-5.6-25.5-1.4-8.8-3-18.9-3.7-22.5-.6-3.6-1.2-11.5-1.3-17.5C9.4 5.6 8.4 3 5.2 6.2zm32.5 63.3c-.6 8.3-4.5 16.8-8.6 18.9-1.6.9-3.2 1.6-3.5 1.6-1.6 0 6.8-23.3 9.6-26.7 2-2.5 3.1 0 2.5 6.2z"/></svg>