<svg id="d" version="1" xmlns="http://www.w3.org/2000/svg" width="104" height="200" viewBox="0 0 78.000000 150.000000"><path d="M55 7.2c0 5.6-2.3 31.2-3.5 38.8-2.1 13.8-2.9 16.6-4.6 16.1-3.9-1.1-8.1-1.2-11.3-.1-7.1 2.3-17 16.1-20.2 28.5-2 7.4-1.8 21.2.4 25.5 4.6 9.2 14.4 6 20.2-6.6 2.2-4.7 10.1-28.4 12-36.2 1.3-5 2.3-6.2 3.4-4.3.3.5.8 8.9 1.1 18.7.3 9.9 1.2 21.9 2.1 26.9 1.6 9.8 6 25.2 7.5 26.1 1.4.8 1.1-15.9-.5-26.6-1.9-12.6-3.2-37-1.9-37 .5 0 1.9 1.4 3.2 3 2.1 3 4.1 3.2 4.1.5 0-.7-2.1-3.6-4.6-6.4l-4.7-5.2.5-30.2c.3-16.6.3-30.8.1-31.5C58 6.6 57.2 6 56.4 6c-.8 0-1.4.6-1.4 1.2zm-8.6 58.9c2.5 2.3-12.8 41.4-18.6 47.6-2.5 2.7-6 3-7.9.7-2-2.4-1.6-19.6.5-25.9C25.8 72.9 34.9 63 42.5 64.6c1.7.3 3.4 1 3.9 1.5z"/></svg>