<?xml version="1.0" standalone="no"?>
<!DOCTYPE svg PUBLIC "-//W3C//DTD SVG 20010904//EN"
 "http://www.w3.org/TR/2001/REC-SVG-20010904/DTD/svg10.dtd">
<svg version="1.0" xmlns="http://www.w3.org/2000/svg"
 width="352.000000pt" height="366.000000pt" viewBox="0 0 352.000000 366.000000"
 preserveAspectRatio="xMidYMid meet">
<metadata>
  <dc:format>image/svg+xml</dc:format>
Created by potrace 1.13, written by Peter Selinger 2001-2015
</metadata>
<g transform="translate(0.000000,366.000000) scale(0.100000,-0.100000)"
fill="#000000" stroke="none">
<path d="M2476 3444 c-82 -18 -180 -54 -252 -93 -46 -25 -64 -29 -146 -30
-205 -4 -267 -26 -444 -159 -194 -146 -318 -297 -429 -526 -102 -209 -140
-371 -133 -561 3 -60 8 -117 12 -126 5 -12 0 -18 -21 -22 -35 -7 -128 -100
-189 -188 -56 -80 -144 -252 -189 -367 -34 -88 -84 -277 -125 -472 -12 -58
-24 -107 -26 -109 -2 -2 -14 3 -28 12 -45 30 -155 60 -198 54 -80 -11 -130
-96 -94 -162 28 -51 87 -75 229 -91 l57 -6 -5 -37 c-4 -20 -8 -47 -11 -59 -3
-17 -1 -22 8 -18 7 3 21 9 30 12 11 4 19 22 24 53 3 25 13 53 21 62 12 15 11
17 -10 23 -14 3 -65 5 -113 5 -175 -1 -266 80 -183 163 28 29 34 30 85 25 30
-3 85 -19 121 -36 74 -35 109 -39 117 -13 3 9 21 98 41 197 49 243 69 319 115
436 65 161 133 288 209 386 101 131 131 145 169 78 51 -88 110 -124 204 -125
51 0 63 5 120 43 78 53 144 135 202 247 73 140 107 285 67 285 -8 0 -21 -32
-36 -90 -28 -108 -44 -148 -98 -240 -47 -79 -136 -173 -189 -198 -145 -69
-278 68 -278 286 0 185 40 347 135 545 106 221 232 379 419 523 140 109 239
149 370 149 28 0 69 4 91 9 40 9 40 9 15 -7 -35 -23 -90 -78 -90 -90 0 -5 15
5 34 23 42 40 210 127 286 149 194 56 366 49 501 -20 l48 -24 -24 -36 c-50
-74 -64 -195 -30 -253 25 -42 78 -71 128 -71 29 0 46 7 68 29 l29 29 6 -25
c11 -43 -3 -166 -25 -225 -34 -87 -95 -174 -195 -273 -133 -132 -242 -188
-423 -220 -125 -22 -215 -19 -329 10 -84 22 -99 24 -112 12 -30 -31 -6 -54 81
-77 102 -29 210 -36 307 -21 240 37 375 104 525 262 133 140 211 288 222 419
12 141 -52 331 -142 422 -114 116 -327 165 -529 122z"/>
<path d="M2455 2147 c-83 -47 -178 -213 -197 -344 -10 -75 -9 -94 16 -225 15
-79 34 -177 42 -219 8 -42 14 -114 14 -160 0 -138 11 -219 30 -229 11 -6 40
-4 81 6 149 35 230 13 300 -80 39 -51 89 -184 89 -234 0 -58 -60 -102 -160
-117 -65 -10 -170 18 -268 70 -47 25 -91 45 -99 45 -61 0 125 -110 229 -136
125 -30 269 4 311 75 59 100 -53 341 -188 402 -52 24 -103 24 -199 -1 -42 -11
-82 -18 -88 -14 -7 4 -8 27 -5 63 10 90 -9 272 -47 465 -51 254 -47 333 24
461 53 97 87 142 125 165 19 12 35 24 35 26 0 6 -2 5 -45 -19z"/>
<path d="M1337 1351 c-90 -36 -147 -96 -147 -154 0 -14 7 -31 17 -38 15 -13
15 -12 4 8 -41 77 139 198 243 163 51 -16 101 -77 116 -140 28 -117 -2 -208
-154 -469 -43 -72 -78 -144 -79 -159 -2 -27 -1 -27 58 -27 33 0 102 4 153 8
81 7 93 6 99 -9 13 -34 -11 -68 -71 -98 -49 -26 -72 -31 -152 -34 -65 -3 -94
-8 -91 -16 6 -18 99 -18 173 -1 80 18 137 52 159 94 17 34 8 74 -20 85 -32 12
-141 4 -257 -20 -39 -8 -36 13 10 72 74 94 177 287 206 383 66 223 -87 424
-267 352z"/>
<path d="M680 457 c38 -40 133 -50 390 -45 295 7 320 23 37 24 -210 1 -276 7
-427 41 l-25 5 25 -25z"/>
</g>
</svg>
