<svg id="a" version="1" xmlns="http://www.w3.org/2000/svg" width="82.667" height="77.333" viewBox="0 0 62.000000 58.000000"><path d="M38.7 4.7c-.4.4-3.1.6-6 .4-4.9-.2-5.6.1-10 4-10.3 9-14.6 26.6-8.5 34.4 1.1 1.4 2.9 2.5 4 2.5 5.7 0 14.3-9.7 19-21.5 2.4-5.9 4.8-8.3 4.8-4.8 0 2.9 5 16.6 6.7 18.5 2 2.2 5.6 2.3 7.3.2 1.1-1.3 1-1.6-.8-2-1.2-.4-2.7-2.2-3.7-4.7-2.6-6.4-5.5-16-5.5-18.1 0-1-.5-3.6-1.2-5.7-.8-3-1.6-3.9-3.3-3.9-1.2 0-2.5.3-2.8.7zm-3.2 8C33.9 21.2 24 38.2 19.8 39.6c-2.7.8-3.8-1-3.8-6.1C16 21.7 24.7 9 32.6 9h3.6l-.7 3.7z"/></svg>