<svg id="f" version="1" xmlns="http://www.w3.org/2000/svg" width="90.667" height="173.333" viewBox="0 0 68.000000 130.000000"><path d="M18.1 7.7c-1.2 1.4-2.3 3.6-2.6 4.7C12.7 26.9 11 47.8 11 69.1c0 17.5-.2 20.8-1.5 21.3-2.4.9-1.8 4.4.7 4.8 1.6.2 2.4 1.1 2.6 2.8.1 1.4.6 4.7 1.1 7.5.5 2.7 1.5 8.1 2.2 11.8 1.4 7.2 3.1 9.9 5.1 7.9.9-.9.9-2.6.1-7-.7-3.1-2-10.5-3-16.4-2.1-13-2.9-11.9 13.2-17.3 14.7-4.9 26.8-9.5 27.9-10.6 2.4-2.2-1.1-1.8-12.6 1.6-6.7 2-16.1 4.9-20.8 6.5-4.6 1.6-8.7 2.7-9 2.4-.3-.3-.4-11.7-.3-25.2.1-24.9 2-44.9 4.4-47.8 2-2.5 4.7-1.5 8.8 3.3 5.5 6.5 8.1 12.2 8.1 18.2 0 5 1.4 6.7 4 5.1 2.1-1.3.7-11.7-2.4-17.7-1.4-2.8-4.8-7.4-7.5-10.2C28 5.9 26.5 5 23.6 5c-2.6 0-4 .7-5.5 2.7z"/></svg>