<svg id="h" version="1" xmlns="http://www.w3.org/2000/svg" width="77.333" height="186.667" viewBox="0 0 58.000000 140.000000"><path d="M8.4 14.7c.3 3.2 1.1 10.7 1.6 16.8.5 6 1.6 17.5 2.5 25.5 4.8 43.4 6.4 59.8 6.5 65.8 0 4.9.2 5.3 2.2 5 1.5-.2 2.4-1.2 2.9-3.3.4-1.7 1.7-7.7 2.9-13.5 2-9.7 3.5-15.7 5.8-23.5 1.1-4 1.7-2.7 5.3 11.1 3.2 12.7 3.6 13.7 4.9 12.9 1.1-.7.6-3.9-2.7-17.5-4.5-18.6-8.8-18.7-13.9-.3-.9 3.2-1.8 7-2.1 8.5-.3 1.5-1.1 3.2-1.8 3.8-1 .8-1.5-1.1-2.4-8.7-.6-5.4-1.6-12.5-2.1-15.8-.5-3.3-1.4-10.1-1.9-15-.6-5-1.5-12.8-2.1-17.5-.6-4.7-1.5-14.5-2-21.7C11 12.7 10.3 9 8.8 9c-.7 0-.8 2-.4 5.7z"/></svg>