<svg id="m" version="1" xmlns="http://www.w3.org/2000/svg" width="90.667" height="104" viewBox="0 0 68.000000 78.000000"><path d="M16.5 15.2c-.3 1.3-1.4 9.4-2.5 18.1C11.8 50.6 11.4 64 13 64c1.3 0 1.5-.6 3-11 .7-4.7 1.6-9.2 2-10 3.1-6.3 5.5-10.8 6.9-12.3 1.5-1.8 1.6-1.8 3.2.2C29 32 31 37.4 32.6 43c3.8 13.2 5 13.2 10.7-.5 4.7-11.3 6.3-14.2 7.1-13.4.3.3.8 4.1 1.2 8.5.6 9.7 2.4 20.3 3.4 20.9 1.3.8 2.2-11.4 1.4-20.6-.6-8.4-2.9-14.9-5.3-14.9-.4 0-2.1 1-3.6 2.2C44.8 27.3 38 40 38 42.9c0 2.6-2.4-.8-3.9-5.4-2.2-7-4.1-10.4-6.1-11-2.6-.8-5.5.9-7.7 4.5-2.5 4.4-3.7 3.7-2.9-1.8 1.7-12.5 1.9-16.2.8-16.2-.7 0-1.4 1-1.7 2.2z"/></svg>