<svg id="w" version="1" xmlns="http://www.w3.org/2000/svg" width="101.333" height="93.333" viewBox="0 0 76.000000 70.000000"><path d="M16.6 8.9c-.7 1 1.2 13.5 4.1 27.1.8 4.1 1.9 9.3 2.4 11.5 2.1 10.8 5.1 15.1 8.6 12.9 1.9-1.2 5.7-10.3 9.5-22.3 1.3-4.1 2.8-7.6 3.4-7.8.6-.2 2.5 2.8 4.2 6.6C52.4 44.8 56.4 50 58.9 50c6 0 12.1-16.6 12.1-32.7 0-11.7-2.7-10.5-4.9 2.2-3.2 18-5.9 26.4-8.2 24.9-.5-.3-2.8-4.2-5-8.7C48.2 26.4 46.4 24 44 24c-2.8 0-4 2.2-8.5 15.7-2.5 7.3-4.9 12.8-5.6 12.8-1.3 0-2.2-3.8-5.3-22-3.4-19.6-4-22-5.8-22.3-.9-.2-1.9.1-2.2.7z"/></svg>