<svg id="g" version="1" xmlns="http://www.w3.org/2000/svg" width="53.333" height="178.667" viewBox="0 0 40.000000 134.000000"><path d="M23.2 4.6c-5 3.4-15 19.3-17.1 27.1-.8 2.9-.7 4.2.4 6 2.6 3.9 6.9 2.8 13.7-3.5l2.7-2.5.7 2.8c1.9 7.6-2.1 59.9-5.4 71.1-2.1 6.9-5.8 11.9-7.8 10.6-1.1-.7-3-5.3-3.7-8.7-.3-1.7-.5-1.6-1.5.8-2 4.9-1.5 10.5 1.3 13.2 3.2 3.3 5.7 3.1 9.8-.5 4.2-3.7 7.5-13 8.8-25 2.1-19.4 2.8-37.5 2.1-53-.6-15-.9-16.5-2.6-16.8-1.1-.3-3.5 1.1-6 3.5-5.8 5.5-7 6.3-8.4 5.4-1-.6-.2-3 3.2-9.7C18.3 15.6 24 8.3 27.6 6.9c1.3-.4 2.4-1.5 2.4-2.4 0-2-3.9-2-6.8.1z"/></svg>