<svg id="p" version="1" xmlns="http://www.w3.org/2000/svg" width="72" height="226.667" viewBox="0 0 54.000000 170.000000"><path d="M24.5 14.8c-2.2 1-4.5 3-5.2 4.3-2.3 4.7-2.4 11.7-.2 10.3.5-.3.9-1.9.9-3.5 0-4.1 1.5-6.6 5-8.4 7.9-4.1 21 1.2 21 8.6 0 2.7-4.6 7.7-10.7 11.5-1.5 1-4.1 2.8-5.6 4.1-3.7 3-5.1 2.9-4.3-.1.7-2.8-1.3-4.9-3.7-4-2.6 1-3.2 6.4-3.2 29.4 0 28.3 3.7 86.6 5.8 92.9 1.4 3.9 3.1 5 4.1 2.5.7-1.8-.5-27.2-2.5-51.9-1.4-18.1-1.7-56.4-.4-57.3.6-.4 1-1.3 1.1-2 .1-.6.2-1.6.3-2.1 0-.5 4.1-3.9 9.1-7.6 10.3-7.7 12-9.9 12-15.2 0-4.8-2-7.8-7.1-10.3-5.8-3-11.6-3.4-16.4-1.2z"/></svg>