<?xml version="1.0" encoding="UTF-8" standalone="no"?>
<svg id="circleFace" width="316px" height="365px" viewBox="0 0 316 365" version="1.1" xmlns="http://www.w3.org/2000/svg" xmlns:xlink="http://www.w3.org/1999/xlink">
    <!-- Generator: Sketch 3.8.3 (29802) - http://www.bohemiancoding.com/sketch -->
    <title>Slice 1</title>
    <desc>Created with Sketch.</desc>
    <defs></defs>
    <g id="Page-1" stroke="none" stroke-width="1" fill="none" fill-rule="evenodd">
        <g id="circle_trimmed" fill="#000000">
            <g id="Page-1">
                <g id="circle">
                    <path d="M158.450356,362.671811 C136.307838,356.963992 124.448456,351.481481 97.2019002,334.282922 C56.8199525,308.747942 37.8299287,290.798354 21.8422803,262.709877 C6.8304038,236.574074 0.0750593824,207.359053 0,168.906379 C0,138.790123 6.38004751,118.587449 24.2441805,91.9259259 C31.3748219,81.3364198 44.4351544,65.4146091 51.3406176,58.9557613 C52.6166271,57.6790123 56.2194774,54.2993827 59.3719715,51.3703704 C72.807601,38.6779835 92.6232779,24.6337449 107.935392,16.8981481 C131.654157,4.95679012 158,-0.751028807 185.171496,0.150205761 C203.485986,0.675925926 214.970071,3.30452675 228.255582,9.98868313 C256.40285,24.1831276 280.72209,49.9434156 296.034204,81.8621399 C309.169596,109.049383 314.648931,137.438272 315.774822,183.175926 C316.150119,198.421811 316,203.003086 314.949169,209.837449 C311.046081,234.996914 302.264133,255.5 283.874584,282.311728 C262.857957,313.028807 243.717815,331.729424 214.069359,350.805556 C196.355344,362.146091 191.101188,364.023663 176.014252,364.549383 C167.907838,364.849794 166.106413,364.624486 158.450356,362.671811 L158.450356,362.671811 L158.450356,362.671811 Z M188.999525,355.687243 C191.326366,354.710905 194.779097,353.359053 196.655582,352.683128 C198.532067,352.007202 201.909739,349.904321 204.16152,348.026749 C206.713539,345.923868 209.866033,344.121399 212.342993,343.445473 C221.350119,340.74177 247.620903,317.760288 261.506888,300.33642 C283.799525,272.398148 297.535392,246.863169 302.864608,223.731481 C306.617577,206.908436 307.44323,194.516461 306.31734,170.783951 C304.440855,132.481481 299.186698,107.547325 287.927791,84.340535 C273.216152,53.9989712 247.620903,27.712963 220.299287,14.8703704 C200.183373,5.40740741 173.76247,3.52983539 144.414252,9.3127572 C132.704988,11.7160494 124.298337,14.5699588 112.063658,20.6532922 C93.7491686,29.6656379 77.911639,41.3065844 60.7230404,58.505144 C43.6095012,75.5534979 32.2004751,90.7242798 23.0432304,108.523663 C12.8351544,128.576132 9.68266033,143.070988 9.68266033,169.957819 C9.75771971,204.580247 14.4864608,227.636831 26.6460808,252.646091 C39.4812352,279.157407 58.0209026,300.636831 82.9406176,318.0607 C99.2285036,329.476337 129.252257,345.247942 144.264133,350.279835 C148.542518,351.70679 156.423753,353.659465 161.752969,354.710905 C167.157245,355.762346 172.186223,356.738683 173.011876,356.888889 C177.590499,357.940329 184.871259,357.339506 188.999525,355.687243 L188.999525,355.687243 L188.999525,355.687243 Z" id="cpath"></path>
                </g>
            </g>
        </g>
    </g>
</svg>