<svg width="316" height="365" viewBox="0 0 316 365" xmlns="http://www.w3.org/2000/svg"><title>Slice 1</title><path d="M158.45 362.672c-22.142-5.708-34.002-11.19-61.248-28.39-40.382-25.534-59.372-43.484-75.36-71.572C6.83 236.574.075 207.36 0 168.906c0-30.116 6.38-50.319 24.244-76.98 7.13-10.59 20.191-26.511 27.097-32.97 1.276-1.277 4.878-4.657 8.031-7.586 13.436-12.692 33.251-26.736 48.563-34.472C131.655 4.957 158-.75 185.171.15c18.315.526 29.8 3.155 43.085 9.839 28.147 14.194 52.466 39.954 67.778 71.873 13.136 27.187 18.615 55.576 19.74 101.314.376 15.246.226 19.827-.825 26.661-3.903 25.16-12.685 45.663-31.074 72.475-21.017 30.717-40.157 49.417-69.806 68.494-17.714 11.34-22.968 13.218-38.055 13.743-8.106.3-9.908.075-17.564-1.877zm30.55-6.985c2.326-.976 5.78-2.328 7.656-3.004 1.876-.676 5.254-2.779 7.506-4.656 2.552-2.103 5.704-3.906 8.181-4.582 9.007-2.703 35.278-25.685 49.164-43.109 22.293-27.938 36.028-53.473 41.358-76.605 3.753-16.823 4.578-29.215 3.452-52.947-1.876-38.303-7.13-63.237-18.39-86.443-14.71-30.342-40.306-56.628-67.628-69.47-20.116-9.464-46.537-11.341-75.885-5.558-11.709 2.403-20.116 5.257-32.35 11.34-18.315 9.013-34.152 20.654-51.341 37.852-17.113 17.048-28.523 32.22-37.68 50.019-10.208 20.052-13.36 34.547-13.36 61.434.075 34.622 4.803 57.679 16.963 82.688 12.835 26.511 31.375 47.99 56.295 65.415 16.288 11.415 46.311 27.187 61.323 32.219 4.279 1.427 12.16 3.38 17.489 4.43a2608.639 2608.639 0 0 0 11.259 2.179c4.578 1.051 11.86.45 15.988-1.202z" fill="#000" fill-rule="evenodd"/></svg>