<svg id="circleFace" width="421px" height="486px" viewBox="0 0 421 486" version="1.1" xmlns="http://www.w3.org/2000/svg" xmlns:xlink="http://www.w3.org/1999/xlink">
    <!-- Generator: Sketch 3.8.3 (29802) - http://www.bohemiancoding.com/sketch -->
    <title>Slice 1</title>
    <desc>Created with Sketch.</desc>
    <defs></defs>
    <g id="Page-1" stroke="none" stroke-width="1" fill="none" fill-rule="evenodd">
        <g id="circle" transform="translate(0.000000, -1.000000)" fill="#000000">
            <g id="Group" transform="translate(210.500000, 243.900000) scale(1, -1) translate(-210.500000, -243.900000) translate(0.000000, 0.900000)">
                <path id="path" d="M211.1,482.9 C181.6,475.3 165.8,468 129.5,445.1 C75.7,411.1 50.4,387.2 29.1,349.8 C9.1,315 0.1,276.1 0,224.9 C0,184.8 8.5,157.9 32.3,122.4 C41.8,108.3 59.2,87.1 68.4,78.5 C70.1,76.8 74.9,72.3 79.1,68.4 C97,51.5 123.4,32.8 143.8,22.5 C175.4,6.6 210.5,-1 246.7,0.2 C271.1,0.9 286.4,4.4 304.1,13.3 C341.6,32.2 374,66.5 394.4,109 C411.9,145.2 419.2,183 420.7,243.9 C421.2,264.2 421,270.3 419.6,279.4 C414.4,312.9 402.7,340.2 378.2,375.9 C350.2,416.8 324.7,441.7 285.2,467.1 C261.6,482.2 254.6,484.7 234.5,485.4 C223.7,485.8 221.3,485.5 211.1,482.9 L211.1,482.9 Z M251.8,473.6 C254.9,472.3 259.5,470.5 262,469.6 C264.5,468.7 269,465.9 272,463.4 C275.4,460.6 279.6,458.2 282.9,457.3 C294.9,453.7 329.9,423.1 348.4,399.9 C378.1,362.7 396.4,328.7 403.5,297.9 C408.5,275.5 409.6,259 408.1,227.4 C405.6,176.4 398.6,143.2 383.6,112.3 C364,71.9 329.9,36.9 293.5,19.8 C266.7,7.2 231.5,4.7 192.4,12.4 C176.8,15.6 165.6,19.4 149.3,27.5 C124.9,39.5 103.8,55 80.9,77.9 C58.1,100.6 42.9,120.8 30.7,144.5 C17.1,171.2 12.9,190.5 12.9,226.3 C13,272.4 19.3,303.1 35.5,336.4 C52.6,371.7 77.3,400.3 110.5,423.5 C132.2,438.7 172.2,459.7 192.2,466.4 C197.9,468.3 208.4,470.9 215.5,472.3 C222.7,473.7 229.4,475 230.5,475.2 C236.6,476.6 246.3,475.8 251.8,473.6 L251.8,473.6 Z" id="path"></path>
            </g>
        </g>
    </g>
</svg>