<svg id="circleFace" version="1.0" xmlns="http://www.w3.org/2000/svg"
 width="750.000000pt" height="1234.000000pt" viewBox="0 0 750.000000 1234.000000"
 preserveAspectRatio="xMidYMid meet">
<defs>
  <filter id="circle_filter">
    <feTurbulence baseFrequency="0.1" numOctaves="5" seed="2" />
    <feComposite operator="in" in2="SourceGraphic"/>
</filter>
</defs>
<g transform="translate(0.000000,1234.000000) scale(0.100000,-0.100000)" fill="#000000" stroke="none" style="filter:none;">
  <path id="path" d="M3581 8910 c-295 -76 -453 -149 -816 -378 -538 -340 -791 -579 -1004
    -953 -200 -348 -290 -737 -291 -1249 0 -401 85 -670 323 -1025 95 -141 269
    -353 361 -439 17 -17 65 -62 107 -101 179 -169 443 -356 647 -459 316 -159
    667 -235 1029 -223 244 7 397 42 574 131 375 189 699 532 903 957 175 362 248
    740 263 1349 5 203 3 264 -11 355 -52 335 -169 608 -414 965 -280 409 -535
    658 -930 912 -236 151 -306 176 -507 183 -108 4 -132 1 -234 -25z m407 -93
    c31 -13 77 -31 102 -40 25 -9 70 -37 100 -62 34 -28 76 -52 109 -61 120 -36
    470 -342 655 -574 297 -372 480 -712 551 -1020 50 -224 61 -389 46 -705 -25
    -510 -95 -842 -245 -1151 -196 -404 -537 -754 -901 -925 -268 -126 -620 -151
    -1011 -74 -156 32 -268 70 -431 151 -244 120 -455 275 -684 504 -228 227 -380
    429 -502 666 -136 267 -178 460 -178 818 1 461 64 768 226 1101 171 353 418
    639 750 871 217 152 617 362 817 429 57 19 162 45 233 59 72 14 139 27 150 29
    61 14 158 6 213 -16z"/>
  </g>
</svg>
